<?xml version="1.0" encoding="UTF-8"?><svg id="a" xmlns="http://www.w3.org/2000/svg" viewBox="0 0 42.05 40.2"><path d="m41.23,17.8l-7.83,7.64c-.23.23-.34.55-.29.87l1.72,10.79c.2,1-.2,2-1,2.6-.4.3-1,.5-1.5.5-.4,0-.8-.1-1.2-.3l-9.64-5.06c-.29-.15-.63-.15-.92,0l-9.74,5.06c-.4.2-.8.3-1.2.3-.5,0-1-.2-1.5-.5-.8-.6-1.2-1.6-1-2.6l1.81-10.69c.05-.32-.05-.65-.29-.88L.83,17.9c-.8-.7-1-1.7-.7-2.7s1.1-1.7,2.1-1.8l10.78-1.53c.32-.05.61-.25.75-.54L18.63,1.5c.5-.9,1.4-1.5,2.4-1.5s2,.6,2.4,1.5l4.87,9.83c.15.29.43.5.75.54l10.78,1.53c1,.2,1.8.8,2.1,1.8.3.9,0,2-.7,2.6h0Z" fill="#e9f5ff"/></svg>