<?xml version="1.0" encoding="UTF-8"?><svg id="a" xmlns="http://www.w3.org/2000/svg" viewBox="0 0 239.01 97.15"><path d="m0,56.59v-6h5v7.5h5l-5,5v7.5H0v-14Zm17.5,6.5H7.5l5-5h5v-7.5h5v20h-5v-7.5Z" fill="#4d4d4d"/><path d="m26.49,53.09v-2.5h5l5,5-3.75,3.75-6.25-6.25Zm7.5,7.5l10-10h5v2.5l-10,10v7.5h-5v-10Z" fill="#4d4d4d"/><path d="m110.54,52.81v-2.5h5l12.5,12.5v-12.5h5v20h-5l-17.5-17.5Zm0,6.99v-4.49l5,5v10h-5v-10.51Z" fill="#4d4d4d"/><path d="m137.03,58.06v-5.25l2.5-2.5h20l-5,5h-12.5v10l-5,5v-12.25Zm7.5,7.25h10v-7.5l5-5v15l-2.5,2.5h-17.5l5-5Z" fill="#4d4d4d"/><path d="m163.53,56.3v-6h5v20h-5v-14Zm7.5,4l10-10h5v2.5l-7.5,7.5,7.5,7.5v2.5h-5l-10-10Z" fill="#4d4d4d"/><path d="m190.02,58.06v-5.25l2.5-2.5h20l-5,5h-12.5v10l-5,5v-12.25Zm7.5,7.25h10v-7.5l5-5v15l-2.5,2.5h-17.5l5-5Z" fill="#4d4d4d"/><path d="m216.51,52.81v-2.5h5l12.5,12.5v-12.5h5v20h-5l-17.5-17.5Zm0,6.99v-4.49l5,5v10h-5v-10.51Z" fill="#4d4d4d"/><path d="m64.15,0l-20.31,5.18,9.07,9.56,25.59,6.75h0c0-2.99-1.49-5.78-3.97-7.45l-5.87-3.94.3-6.16L64.15,0Z" fill="#dffdff"/><path d="m71.15,20.5l-18.78-4.95-6.35-6.72-27.53,8.16s12.19,14.73,52.65,3.51Z" fill="#dffdff"/><path d="m95.86,0l20.31,5.18-9.07,9.56-25.59,6.75h0c0-2.99,1.49-5.78,3.97-7.45l5.87-3.94-.3-6.16,4.82-3.94Z" fill="#dffdff"/><path d="m88.86,20.5l18.78-4.95,6.35-6.72,27.53,8.16s-12.19,14.73-52.65,3.51Z" fill="#dffdff"/><path d="m91.45,27.83c1.58,0,3.09.51,4.33,1.45l-8.48,8.48-4.37-4.37,3.45-3.45c1.36-1.36,3.16-2.1,5.08-2.1m0-1c-2.1,0-4.19.8-5.79,2.4l-4.16,4.16,5.79,5.79,9.95-9.95c-1.6-1.6-3.69-2.4-5.79-2.4h0Z" fill="#dffdff"/><path d="m72.24,44.06l4.37,4.37-3.96,3.96-.71.71.71.71,16.08,16.08.71.7,2.43,2.43-3.85,3.85h0s-.72.72-.72.72l-9.72,9.72c-.84.84-1.95,1.3-3.13,1.3-.84,0-1.65-.23-2.34-.67l12.76-12.76.71-.71-.71-.71-16.08-16.08-.72-.7-4.38-4.38h0s3.85-3.86,3.85-3.86h0s.71-.7.71-.7l3.96-3.96m0-1.41l-4.67,4.67h0s-5.27,5.26-5.27,5.26h0s0,.02,0,.02l5.79,5.79h0s16.08,16.07,16.08,16.07l-13.55,13.55c1.06,1.06,2.45,1.59,3.83,1.59s2.78-.53,3.83-1.59l9.72-9.72h0s5.27-5.27,5.27-5.27h0s0,0,0,0l-3.83-3.83h0s-16.08-16.08-16.08-16.08l4.67-4.67-5.79-5.79h0Z" fill="#dffdff"/><path d="m97.24,52.58l-5.27-5.27h0s-18.09-18.08-18.09-18.08c-3.2-3.2-8.38-3.2-11.58,0h0s23.88,23.88,23.88,23.88l-5.04,5.04,5.27,5.27,5.04-5.04h0s5.79-5.78,5.79-5.78h0s0-.02,0-.02Z" fill="#dffdff"/><polygon points="73.13 66.14 70.09 69.18 70.09 69.18 66.26 73.02 66.26 73.02 66.26 73.02 71.53 78.29 71.53 78.29 74.56 81.32 78.39 77.48 75.36 74.45 78.4 71.41 73.13 66.14" fill="#dffdff"/><path d="m81.14,87.9l.1.1c2.12,2.12,5.55,2.12,7.67,0h0s-3.94-3.94-3.94-3.94l-3.83,3.83Z" fill="#dffdff"/><rect x="77.32" y="23.84" width="4.89" height="4.89" transform="translate(4.78 64.1) rotate(-45)" fill="#dffdff"/><polygon points="79.77 31.86 78.75 30.85 78.75 26.29 80.79 26.29 80.79 30.85 79.77 31.86" fill="#dffdff"/><polygon points="80.79 50.32 80.79 56.38 79.77 57.4 78.75 56.38 78.75 50.32 79.77 49.3 80.79 50.32" fill="#dffdff"/><polygon points="80.79 90.07 80.79 96.13 79.77 97.15 78.75 96.13 78.75 90.07 79.77 89.05 80.79 90.07" fill="#dffdff"/><polygon points="80.79 73.33 80.79 75.34 79.77 76.36 78.75 75.34 78.75 73.33 79.77 72.31 80.79 73.33" fill="#dffdff"/><path d="m85.93,8.94l-6.17,6.17-6.17-6.17h0c3.4-3.4,8.93-3.4,12.33,0h0Z" fill="#dffdff"/></svg>