<?xml version="1.0" encoding="UTF-8"?><svg id="a" xmlns="http://www.w3.org/2000/svg" viewBox="0 0 566.86 319.32"><rect x="61.75" y="34.99" width="141.19" height="264.68" transform="translate(299.67 34.99) rotate(90)" fill="#141414"/><polygon points="287.18 89.24 211.43 171.36 249.3 208.49 566.86 208.49 566.86 89.24 287.18 89.24" fill="#333"/><polygon points="82.8 138.74 99.87 121.67 226.05 121.67 234.63 130.25 286.43 130.25 304.87 111.81 359.93 111.81 369.64 121.52 438.68 121.52 459.64 142.49 566.86 142.49 566.86 .25 0 .25 0 138.74 82.8 138.74" fill="#dffdff"/><polygon points="566.86 188.99 484.99 188.99 479.93 194.05 257.74 194.05 252.68 188.99 193.05 188.99 184.99 197.05 179.55 191.61 0 191.61 0 318.97 566.86 318.97 566.86 188.99" fill="#dffdff"/><polyline points="0 73.9 55.09 73.9 69.49 88.3 87.12 88.3 94.24 81.17 185.55 81.17 234.63 130.25 286.43 130.25" fill="none" stroke="#1a1a1a" stroke-miterlimit="10" stroke-width=".5"/><polyline points="359.93 111.81 376.93 94.8 470.55 94.8 494.86 119.11 566.86 119.11" fill="none" stroke="#1a1a1a" stroke-miterlimit="10" stroke-width=".5"/><polyline points="543.12 .25 515.12 28.24 347.93 28.24 322.12 54.05 234.63 54.05 195.9 15.32 130.8 15.32 116.52 1.04" fill="none" stroke="#1a1a1a" stroke-miterlimit="10" stroke-width=".5"/><polyline points="556.62 .25 517.94 38.93 420.03 38.93" fill="none" stroke="#1a1a1a" stroke-linecap="round" stroke-miterlimit="10" stroke-width=".5"/><circle cx="420.12" cy="38.93" r="1.88" fill="#1a1a1a"/><line x1="491.93" y1="50.61" x2="420.03" y2="50.61" fill="none" stroke="#1a1a1a" stroke-linecap="round" stroke-miterlimit="10" stroke-width=".5"/><circle cx="420.12" cy="50.61" r="1.88" fill="#1a1a1a"/><polyline points="566.86 203.61 450.87 203.61 437.37 217.11 244.43 217.11 216.02 188.7" fill="none" stroke="#1a1a1a" stroke-miterlimit="10" stroke-width=".5"/><polyline points="566.86 286.3 424.43 286.3 395 256.87 170.74 256.87 108.47 319.14" fill="none" stroke="#1a1a1a" stroke-miterlimit="10" stroke-width=".5"/><polyline points="252.68 188.99 193.05 188.99 151.52 230.52 31.8 230.52 22.29 221 0 221" fill="none" stroke="#1a1a1a" stroke-miterlimit="10" stroke-width=".5"/><polyline points="164.55 191.61 153 203.17 26.74 203.17 14.78 191.2" fill="none" stroke="#1a1a1a" stroke-miterlimit="10" stroke-width=".25"/><polyline points="295.69 120.99 270.87 120.99 261.46 130.4" fill="none" stroke="#1a1a1a" stroke-miterlimit="10" stroke-width=".25"/><polyline points="566.86 212.05 504.87 212.05 488.55 228.36 408.12 228.36 396.3 240.17 425.27 269.14 508.24 269.14 517.94 259.44 566.86 259.44" fill="none" stroke="#1a1a1a" stroke-miterlimit="10" stroke-width=".25"/><polyline points="379.43 .25 368.87 10.81 248.93 10.81 238.87 .75" fill="none" stroke="#1a1a1a" stroke-miterlimit="10" stroke-width=".25"/><path d="m22.24,46.59v-22.32l11.34-11.34h44.75l11.34,11.34v22.32c-4.43,4.43-6.91,6.91-11.34,11.34h-44.75l-11.34-11.34Z" fill="none" stroke="#1a1a1a" stroke-miterlimit="10" stroke-width=".5"/><polyline points="226.05 121.67 99.87 121.67 82.8 138.74 0 138.74" fill="none" stroke="#1a1a1a" stroke-miterlimit="10" stroke-width=".5"/><polyline points="184.99 197.05 179.55 191.61 0 191.61" fill="none" stroke="#1a1a1a" stroke-miterlimit="10" stroke-width=".5"/></svg>